{"accessors" : [{"bufferView" : 0, "byteOffset" : 0, "componentType" : 5123, "count" : 1284, "type" : "SCALAR", "max" : [1016], "min" : [0]}, {"bufferView" : 1, "byteOffset" : 0, "componentType" : 5126, "count" : 1017, "type" : "VEC3", "max" : [1, 4.502131462097168, 1], "min" : [-1, -4.502131462097168, -1], "name" : "POSITION"}, {"bufferView" : 1, "byteOffset" : 12, "componentType" : 5126, "count" : 1017, "type" : "VEC3", "max" : [0.9935556650161743, 0.9935556650161743, 0.9935556650161743], "min" : [-0.9935556650161743, -0.9935556650161743, -0.9935556650161743], "name" : "NORMAL"}, {"bufferView" : 1, "byteOffset" : 24, "componentType" : 5126, "count" : 1017, "type" : "VEC2", "max" : [0.875, 1], "min" : [0.125, 0.0051538944244384766], "name" : "TEXCOORD_0"}, {"bufferView" : 0, "byteOffset" : 2568, "componentType" : 5123, "count" : 1284, "type" : "SCALAR", "max" : [1016], "min" : [0]}, {"bufferView" : 2, "byteOffset" : 0, "componentType" : 5126, "count" : 1017, "type" : "VEC3", "max" : [1, 1.864562749862671, 1], "min" : [-1, -1.8645625114440918, -1], "name" : "POSITION"}, {"bufferView" : 2, "byteOffset" : 12, "componentType" : 5126, "count" : 1017, "type" : "VEC3", "max" : [0.9935556650161743, 0.9935556650161743, 0.9935556650161743], "min" : [-0.9935556650161743, -0.9935556650161743, -0.9935556650161743], "name" : "NORMAL"}, {"bufferView" : 2, "byteOffset" : 24, "componentType" : 5126, "count" : 1017, "type" : "VEC2", "max" : [0.875, 1], "min" : [0.125, 0.0051538944244384766], "name" : "TEXCOORD_0"}, {"bufferView" : 0, "byteOffset" : 5136, "componentType" : 5123, "count" : 1284, "type" : "SCALAR", "max" : [1019], "min" : [0]}, {"bufferView" : 3, "byteOffset" : 0, "componentType" : 5126, "count" : 1020, "type" : "VEC3", "max" : [1, 3.287071704864502, 1], "min" : [-1, -3.287071704864502, -1], "name" : "POSITION"}, {"bufferView" : 3, "byteOffset" : 12, "componentType" : 5126, "count" : 1020, "type" : "VEC3", "max" : [0.9935556650161743, 0.9935556650161743, 0.9935556650161743], "min" : [-0.9935556650161743, -0.9935556650161743, -0.9935556650161743], "name" : "NORMAL"}, {"bufferView" : 3, "byteOffset" : 24, "componentType" : 5126, "count" : 1020, "type" : "VEC2", "max" : [0.8698461055755615, 1], "min" : [0.125, 0], "name" : "TEXCOORD_0"}, {"bufferView" : 0, "byteOffset" : 7704, "componentType" : 5123, "count" : 21420, "type" : "SCALAR", "max" : [18318], "min" : [0]}, {"bufferView" : 4, "byteOffset" : 0, "componentType" : 5126, "count" : 18319, "type" : "VEC3", "max" : [2.8435003757476807, 0.05000000074505806, 0.8455000519752502], "min" : [-2.8435001373291016, -0.05000000074505806, -0.8454999923706055], "name" : "POSITION"}, {"bufferView" : 4, "byteOffset" : 12, "componentType" : 5126, "count" : 18319, "type" : "VEC3", "max" : [0, 1.0000044107437134, -0], "min" : [0, -1.0000044107437134, -0], "name" : "NORMAL"}, {"bufferView" : 4, "byteOffset" : 24, "componentType" : 5126, "count" : 18319, "type" : "VEC2", "max" : [1, 1], "min" : [0, 0], "name" : "TEXCOORD_0"}], "asset" : {"generator" : "Aspose.3D 23.2", "version" : "2.0"}, "buffers" : [{"uri" : "data:application/octet-stream;base64,", "byteLength" : 859268}], "bufferViews" : [{"buffer" : 0, "byteOffset" : 0, "byteLength" : 50544, "target" : 34963}, {"buffer" : 0, "byteOffset" : 50548, "byteLength" : 41088, "byteStride" : 32, "target" : 34962}, {"buffer" : 0, "byteOffset" : 91640, "byteLength" : 41088, "byteStride" : 32, "target" : 34962}, {"buffer" : 0, "byteOffset" : 132732, "byteLength" : 41088, "byteStride" : 32, "target" : 34962}, {"buffer" : 0, "byteOffset" : 173824, "byteLength" : 685440, "byteStride" : 32, "target" : 34962}], "materials" : [{"name" : "Material", "pbrMetallicRoughness" : {"baseColorFactor" : [1, 1, 1, 1], "metallicFactor" : 0, "roughnessFactor" : 0.5}, "emissiveFactor" : [0, 0, 0], "alphaMode" : "OPAQUE", "doubleSided" : true}, {"name" : "Material.007", "pbrMetallicRoughness" : {"baseColorFactor" : [0.0021237730979919434, 0.4793197810649872, 0.799102783203125, 1], "metallicFactor" : 0, "roughnessFactor" : 0.5}, "emissiveFactor" : [0, 0, 0], "alphaMode" : "OPAQUE", "doubleSided" : true}, {"name" : "Material.008", "pbrMetallicRoughness" : {"baseColorFactor" : [0.8000000715255737, 0.010423295199871063, 0, 1], "metallicFactor" : 0, "roughnessFactor" : 0.5}, "emissiveFactor" : [0, 0, 0], "alphaMode" : "OPAQUE", "doubleSided" : true}], "meshes" : [{"primitives" : [{"attributes" : {"POSITION" : 1, "NORMAL" : 2, "TEXCOORD_0" : 3}, "indices" : 0, "material" : 0, "mode" : 4}]}, {"primitives" : [{"attributes" : {"POSITION" : 5, "NORMAL" : 6, "TEXCOORD_0" : 7}, "indices" : 4, "material" : 1, "mode" : 4}]}, {"primitives" : [{"attributes" : {"POSITION" : 9, "NORMAL" : 10, "TEXCOORD_0" : 11}, "indices" : 8, "material" : 2, "mode" : 4}]}, {"primitives" : [{"attributes" : {"POSITION" : 13, "NORMAL" : 14, "TEXCOORD_0" : 15}, "indices" : 12, "mode" : 4}]}], "nodes" : [{"matrix" : [0.12815773487091064, 0, 0, 0, 0, 0.12815773487091064, 0, 0, 0, 0, 0.12815773487091064, 0, -0.35873427987098694, 0.5825154781341553, 0, 1], "mesh" : 0, "name" : "Cube"}, {"matrix" : [0.12815773487091064, 0, 0, 0, 0, 0.12815773487091064, 0, 0, 0, 0, 0.12815773487091064, 0, -0.0025643378030508757, 0.2444906234741211, 0, 1], "mesh" : 1, "name" : "Cube.001"}, {"matrix" : [0.12815773487091064, 0, 0, 0, 0, 0.12815773487091064, 0, 0, 0, 0, 0.12815773487091064, 0, 0.3582488000392914, 0.42679616808891296, 0, 1], "mesh" : 2, "name" : "Cube.002"}, {"matrix" : [0.18256521224975586, 0, 0, 0, 0, -2.4529253151827756E-08, 0.18256523677900902, 0, 0, -0.18256523677900902, -2.4529253151827756E-08, 0, 0.01483056228607893, 1.5401043891906738, 0.04258376359939575, 1], "mesh" : 3, "name" : "Text.001"}], "scene" : 0, "scenes" : [{"nodes" : [0, 1, 2, 3]}]}